<svg version="1.1" id="Ebene_1" xmlns="http://www.w3.org/2000/svg" x="0" y="0" viewBox="-207 398.9 20 20" xml:space="preserve"><style type="text/css">.st0{fill:#999}</style><path class="st0" d="M-199.1 413.6c-1.8 0-3.6-.7-4.9-2-2.7-2.7-2.7-7 0-9.7 1.3-1.3 3-2 4.9-2 1.8 0 3.6.7 4.9 2 1.3 1.3 2 3 2 4.9 0 1.8-.7 3.6-2 4.9-1.4 1.2-3.1 1.9-4.9 1.9zm0-11.9c-1.4 0-2.6.5-3.6 1.5s-1.5 2.2-1.5 3.6.5 2.6 1.5 3.6 2.2 1.5 3.6 1.5 2.6-.5 3.6-1.5c2-2 2-5.2 0-7.2-1-1-2.3-1.5-3.6-1.5zM-194.4 412.9l1.4-1.4 5 5-1.4 1.4z"/></svg>